<?xml version="1.0" encoding="UTF-8" standalone="no"?>
<svg
   xmlns:dc="http://purl.org/dc/elements/1.1/"
   xmlns:cc="http://creativecommons.org/ns#"
   xmlns:rdf="http://www.w3.org/1999/02/22-rdf-syntax-ns#"
   xmlns:svg="http://www.w3.org/2000/svg"
   xmlns="http://www.w3.org/2000/svg"
   xmlns:sodipodi="http://sodipodi.sourceforge.net/DTD/sodipodi-0.dtd"
   xmlns:inkscape="http://www.inkscape.org/namespaces/inkscape"
   width="182mm"
   height="28mm"
   viewBox="0 0 182 28"
   version="1.1"
   id="svg1119"
   inkscape:version="1.0.2 (e86c870879, 2021-01-15)"
   sodipodi:docname="logo-eq-light-new.svg">
  <defs
     id="defs1113" />
  <sodipodi:namedview
     id="base"
     pagecolor="#ffffff"
     bordercolor="#666666"
     borderopacity="1.0"
     inkscape:pageopacity="0.0"
     inkscape:pageshadow="2"
     inkscape:zoom="0.98994949"
     inkscape:cx="368.2702"
     inkscape:cy="149.60086"
     inkscape:document-units="px"
     inkscape:current-layer="layer1"
     inkscape:document-rotation="0"
     showgrid="false"
     inkscape:window-width="1343"
     inkscape:window-height="904"
     inkscape:window-x="0"
     inkscape:window-y="0"
     inkscape:window-maximized="0" />
  <metadata
     id="metadata1116">
    <rdf:RDF>
      <cc:Work
         rdf:about="">
        <dc:format>image/svg+xml</dc:format>
        <dc:type
           rdf:resource="http://purl.org/dc/dcmitype/StillImage" />
        <dc:title></dc:title>
      </cc:Work>
    </rdf:RDF>
  </metadata>
  <g
     inkscape:label="Layer 1"
     inkscape:groupmode="layer"
     id="layer1">
    <path
       id="circle86"
       style="fill:#ff4935;fill-opacity:1;stroke:#8e69ca;stroke-width:0"
       d="m 14.032199,1.4941739 a 12.456052,12.456052 0 0 0 -2.297534,0.218591 c 0.158155,0.267046 0.438331,0.72585 0.472322,0.765844 0.005,0.007 0.06982,-0.02863 0.142627,-0.07803 0.15839,-0.107619 0.205822,-0.111741 0.253732,-0.02222 0.0312,0.0582 0.01441,0.0826 -0.120923,0.1757 -0.0865,0.0595 -0.150714,0.119152 -0.143144,0.132291 0.14173,0.245899 0.52213,0.843971 0.54622,0.858862 0.0178,0.011 0.07334,-0.01218 0.123507,-0.05168 0.11422,-0.0899 0.173261,-0.0908 0.220141,-0.0031 0.0314,0.0587 0.01903,0.0803 -0.08527,0.147794 -0.067,0.0434 -0.121726,0.09578 -0.121956,0.116273 -3.2e-4,0.0281 0.517002,0.8808779 0.574642,0.9472299 0.006,0.007 0.04632,-0.01281 0.08992,-0.04341 0.103411,-0.0724 0.123102,-0.07 0.170532,0.01861 0.0337,0.063 0.02631,0.08449 -0.04909,0.147278 l -0.08837,0.0739 0.27957,0.434084 c 0.15373,0.238749 0.286829,0.441428 0.295589,0.450617 0.009,0.009 0.06154,-0.0099 0.117306,-0.04134 0.0977,-0.0561 0.103112,-0.05531 0.154512,0.01809 0.0498,0.071 0.04739,0.08008 -0.03411,0.139528 -0.0481,0.035 -0.08733,0.07788 -0.08733,0.09508 0,0.0172 0.121175,0.218114 0.269235,0.446484 l 0.269234,0.415478 0.08682,-0.06666 c 0.11083,-0.0851 0.127424,-0.08465 0.176734,0.0078 0.0354,0.0661 0.02819,0.08602 -0.05581,0.152961 l -0.09664,0.077 0.08217,0.133842 c 0.045,0.0735 0.18091,0.286416 0.30179,0.473355 l 0.219625,0.340032 0.09922,-0.0708 c 0.12561,-0.0894 0.163667,-0.08931 0.212907,0.0026 0.0413,0.0772 0.03564,0.08569 -0.118339,0.173633 -0.0451,0.0258 -0.05791,0.05997 -0.04341,0.117824 0.026,0.103648 -0.04505,0.151945 -0.104386,0.07079 -0.0417,-0.057 -0.0526,-0.05471 -0.168465,0.03359 -0.13524,0.103159 -0.143669,0.12142 -0.0832,0.181901 0.0309,0.0309 0.02613,0.0466 -0.02067,0.0646 -0.0353,0.0135 -0.07287,0.0047 -0.08837,-0.02015 -0.034,-0.055 -0.14571,-0.02139 -0.22686,0.06821 -0.05,0.0553 -0.05349,0.07776 -0.01809,0.120406 0.0355,0.0428 0.03315,0.05631 -0.01395,0.07441 -0.0341,0.0131 -0.07504,-6.77e-4 -0.09974,-0.03411 -0.0379,-0.0512 -0.05032,-0.0492 -0.137976,0.0217 -0.0895,0.0723 -0.09306,0.08335 -0.04496,0.151413 0.0313,0.0443 0.10736,0.08262 0.19172,0.09612 0.0769,0.0123 0.33923,0.0941 0.58291,0.181901 0.3577,0.12896 0.555454,0.229674 1.024744,0.522964 l 0.58136,0.3632872 0.236678,0.342098 0.237195,0.342101 0.670243,-0.464574 c 0.3687,-0.255402 0.679634,-0.4734452 0.690914,-0.4847252 0.0113,-0.0113 -0.01821,-0.09072 -0.06511,-0.176733 -0.0701,-0.128482 -0.0988,-0.153091 -0.16123,-0.137459 -0.0418,0.0105 -0.08458,0.0052 -0.09509,-0.01189 -0.0106,-0.0171 0.820446,-0.593966 1.846916,-1.281576 0.878406,-0.588417 2.143553,-1.46614 3.117638,-2.155938 a 12.456052,12.456052 0 0 0 -9.642821,-4.5718149 12.456052,12.456052 0 0 0 -0.02584,0 z m -2.430859,0.244946 a 12.456052,12.456052 0 0 0 -0.305408,0.06511 c 0.02524,0.04954 0.04706,0.09595 0.104903,0.186037 0.0829,0.129119 0.224186,0.348911 0.313676,0.488341 l 0.162781,0.253214 0.111621,-0.077 c 0.0616,-0.0425 0.116596,-0.08012 0.121956,-0.08372 0.0093,-0.0058 -0.349604,-0.586994 -0.509529,-0.83199 z m -0.446485,0.09818 a 12.456052,12.456052 0 0 0 -0.167948,0.04186 c -0.04341,0.04059 -0.07869,0.0832 -0.07235,0.09974 0.0349,0.091 0.613894,0.95808 0.639754,0.95808 0.0153,0 0.0665,-0.02608 0.113688,-0.05788 0.0472,-0.0319 0.0916,-0.06271 0.0987,-0.06821 0.01492,-0.01149 -0.512483,-0.846326 -0.611849,-0.973585 z m -0.37362,0.198956 c -0.0191,-4.5e-4 -0.07255,0.02859 -0.119373,0.0646 l -0.08527,0.06563 0.135392,0.220144 c 0.42608,0.6931 0.502924,0.795983 0.567924,0.761193 0.0346,-0.0185 0.08263,-0.05752 0.10697,-0.08682 0.0373,-0.045 -0.0037,-0.129318 -0.263033,-0.538467 -0.16916,-0.26689 -0.323514,-0.485825 -0.342614,-0.486275 z m -1.1358485,0.266134 a 12.456052,12.456052 0 0 0 -8.043438,11.6478661 12.456052,12.456052 0 0 0 7.822262,11.56157 l 0.389124,-2.29444 c 0.3073205,-1.81174 0.5510545,-3.38259 0.7260545,-4.68343 0.14483,-1.07653 0.257451,-1.96308 0.25063,-1.9699 -0.0207,-0.0207 -0.489361,0.30747 -2.2308715,1.55959 -1.11648,0.80274 -1.678445,1.18668 -1.701705,1.16324 -0.0232,-0.0234 -0.009,-0.0525 0.04341,-0.0879 0.10491,-0.0712 0.09804,-0.10445 -0.02636,-0.13178 -0.0878,-0.0193 -0.103869,-0.039 -0.103869,-0.12764 0,-0.12788 -0.0089,-0.12498 -0.344682,0.10646 -0.14187,0.0978 -0.282622,0.17749 -0.312643,0.17725 -0.044,-3.5e-4 -0.210839,-0.20235 -0.210839,-0.25528 0,-0.008 0.08559,-0.0729 0.190686,-0.14522 0.20098,-0.13843 0.217347,-0.16925 0.142627,-0.26768 -0.0574,-0.0756 -0.08512,-0.0762 -0.166399,-0.003 -0.0511,0.0463 -0.07315,0.0497 -0.10697,0.0155 -0.0337,-0.034 -0.03191,-0.0494 0.0088,-0.0744 0.16953,-0.10276 0.170177,-0.11867 0.01654,-0.32505 -0.0463,-0.0621 -0.05311,-0.0627 -0.137459,-0.007 -0.132061,0.0865 -0.19041,0.0273 -0.06873,-0.0698 0.10605,-0.0846 0.101566,-0.11915 -0.03927,-0.3085 -0.0493,-0.0663 -0.05593,-0.0669 -0.153479,-0.0109 -0.13855,0.0795 -0.177393,0.009 -0.05064,-0.0915 l 0.09663,-0.077 -0.165365,-0.25632 -0.165881,-0.25579 0.07751,-0.0625 c 0.0424,-0.0343 0.08815,-0.0625 0.101803,-0.0625 0.0136,0 0.09862,0.1171 0.189136,0.25993 l 0.164848,0.25941 0.415478,-0.27853 c 0.27459,-0.18396 0.407334,-0.29269 0.390674,-0.3204 -0.0139,-0.0231 -0.0793,-0.12685 -0.145211,-0.23047 l -0.119889,-0.1881 0.07855,-0.0636 c 0.043,-0.0348 0.08809,-0.0631 0.100252,-0.063 0.0122,1.7e-4 0.08231,0.0938 0.156063,0.20825 0.0737,0.11444 0.148838,0.20826 0.166398,0.20826 0.0231,0 0.798189,-0.49917 0.891419,-0.57413 0.006,-0.005 -0.0472,-0.0994 -0.117822,-0.2098 l -0.128675,-0.20051 0.07803,-0.0636 c 0.043,-0.0348 0.08879,-0.0636 0.101803,-0.0636 0.013,0 0.07583,0.0861 0.139527,0.19121 0.0637,0.10505 0.123478,0.1912 0.132808,0.1912 0.009,0 0.193911,-0.11967 0.410311,-0.26562 l 0.393257,-0.2651 -0.117305,-0.18345 -0.117306,-0.18345 0.08372,-0.0548 c 0.0459,-0.0301 0.09563,-0.0543 0.110588,-0.0537 0.015,6e-4 0.07502,0.0798 0.133325,0.1757 l 0.105937,0.17415 0.380338,-0.2651 c 0.509,-0.35483 0.483661,-0.3227 0.376721,-0.48008 -0.0859,-0.12648 -0.08704,-0.13397 -0.02584,-0.18035 0.0986,-0.0747 0.162846,-0.0597 0.227376,0.0537 0.0325,0.0572 0.07909,0.10338 0.1038705,0.10232 0.0248,-10e-4 0.122671,-0.0611 0.217041,-0.1328 l 0.171566,-0.13023 -0.0093,-0.20257 c -0.005,-0.11132 0.0041,-0.21163 0.02067,-0.22324 0.0165,-0.0116 0.08729,-0.37515 0.157096,-0.80771 0.12089,-0.74922 0.137731,-0.81499 0.359151,-1.38906 0.2145,-0.55614 0.259674,-0.6416 0.583944,-1.104325 l 0.3514,-0.501261 0.607714,-0.3694852 c 0.46654,-0.283702 0.698092,-0.401384 0.997872,-0.505913 0.21477,-0.0749 0.390574,-0.147362 0.390674,-0.161232 5.6e-4,-0.0749 -2.519169,-4.121544 -3.540869,-5.6864749 C 9.9666855,2.8043219 9.8672005,2.6461409 9.6454035,2.3024389 Z m 2.5688355,0.460952 c -0.018,0 -0.07736,0.03148 -0.131775,0.07028 l -0.09922,0.0708 0.284738,0.448551 c 0.15656,0.246801 0.29224,0.448829 0.30179,0.449067 0.01,2.4e-4 0.06298,-0.03635 0.118339,-0.08165 l 0.100769,-0.08268 -0.271301,-0.437182 c -0.14899,-0.24053 -0.285301,-0.437184 -0.303341,-0.437184 z m -0.322461,0.213942 c -0.0236,-0.0253 -0.22558,0.150124 -0.21239,0.184483 0.0312,0.0814 0.547318,0.8517889 0.570508,0.8516279 0.0137,-9.8e-5 0.06694,-0.03523 0.118339,-0.07803 l 0.09353,-0.07803 -0.279569,-0.4340829 c -0.15374,-0.23875 -0.284392,-0.439508 -0.290422,-0.445966 z m -0.341064,0.238744 c -0.0162,-7.81e-4 -0.07406,0.03045 -0.128675,0.06925 l -0.09922,0.0708 0.284737,0.450101 c 0.15651,0.2476399 0.292587,0.4502019 0.302307,0.4501009 0.01,-10e-5 0.06363,-0.03665 0.119889,-0.08165 v -5.16e-4 l 0.10232,-0.08165 -0.275953,-0.4371809 c -0.15176,-0.240602 -0.289257,-0.43846 -0.305407,-0.439251 z m 1.336869,0.633553 c -0.03119,0.0018 -0.08648,0.03053 -0.173633,0.08888 -0.037,0.0247 0.01849,0.134858 0.254765,0.504878 0.16611,0.260202 0.315383,0.472839 0.331763,0.472839 0.0164,0 0.06849,-0.03513 0.116272,-0.07803 l 0.08682,-0.07803 -0.284737,-0.440282 c -0.15677,-0.242202 -0.295572,-0.450612 -0.307992,-0.463021 -0.0052,-0.0052 -0.01286,-0.0078 -0.02325,-0.0072 z m -0.31781,0.1999879 c -0.01,-6.91e-4 -0.06204,0.03475 -0.116789,0.07855 l -0.09973,0.07958 0.269751,0.43253 c 0.14821,0.237802 0.284284,0.451773 0.302824,0.475424 0.0495,0.0632 0.24666,-0.08179 0.217041,-0.159681 -0.0304,-0.0799 -0.551972,-0.904875 -0.573092,-0.906404 z m -0.336414,0.242879 c -0.0228,-5.9e-4 -0.08195,0.034 -0.131258,0.077 l -0.08992,0.07803 0.30024,0.476972 0.30024,0.476975 0.109038,-0.07493 c 0.0599,-0.0413 0.114576,-0.07967 0.121956,-0.08526 0.0267,-0.0203 -0.569909,-0.947729 -0.610299,-0.94878 z m 1.377694,0.654225 -0.10387,0.0739 c -0.0572,0.0407 -0.103869,0.08315 -0.103869,0.09405 0,0.011 0.08911,0.162443 0.19792,0.336415 0.1088,0.173969 0.23378,0.374864 0.27802,0.446484 0.0442,0.0716 0.0924,0.129807 0.106453,0.129707 0.0141,-1.01e-4 0.07059,-0.0361 0.125574,-0.0801 l 0.09973,-0.0801 -0.299723,-0.45992 z m -0.329179,0.248563 c -0.0191,-2.81e-4 -0.07696,0.0342 -0.128674,0.077 l -0.09405,0.07803 0.284737,0.459919 c 0.15674,0.25291 0.293274,0.459852 0.302824,0.45992 0.01,6.9e-5 0.06374,-0.03677 0.120406,-0.08217 l 0.102836,-0.08268 -0.169499,-0.273368 c -0.0933,-0.15031 -0.218095,-0.354854 -0.276986,-0.454752 -0.0589,-0.0999 -0.122493,-0.181621 -0.141593,-0.181901 z m -1.350305,0.01602 c -0.06242,0.01585 -0.160197,0.08187 -0.160197,0.121955 0,0.0472 0.463733,0.798242 0.492993,0.798401 0.0133,7.1e-5 0.06415,-0.03503 0.113171,-0.07803 l 0.08888,-0.07803 -0.230477,-0.364837 c -0.12667,-0.200548 -0.243119,-0.378679 -0.258899,-0.39584 -0.008,-0.0087 -0.02467,-0.0089 -0.04547,-0.0036 z m 1.015959,0.225825 c -0.0494,0 -0.204122,0.108048 -0.204122,0.142629 0,0.0167 0.06781,0.13598 0.150378,0.265099 0.0825,0.129119 0.207483,0.324779 0.277502,0.434599 0.07,0.109818 0.140854,0.19947 0.157614,0.19947 0.0168,0 0.07034,-0.03126 0.119372,-0.06976 l 0.0894,-0.07028 -0.278535,-0.45062 c -0.15333,-0.247919 -0.293659,-0.451135 -0.311609,-0.451135 z m 1.363224,0.625284 c -0.0119,1.11e-4 -0.06747,0.03685 -0.123507,0.08165 l -0.101802,0.08165 0.257865,0.420646 c 0.14198,0.231412 0.271171,0.421587 0.287321,0.422198 0.0161,6.08e-4 0.07469,-0.02611 0.130225,-0.05891 0.0555,-0.0328 0.101285,-0.07345 0.101285,-0.09095 0,-0.0429 -0.523917,-0.856488 -0.551387,-0.856279 z m -1.727543,0.160716 c -0.0204,0.0025 -0.04756,0.01504 -0.08682,0.03824 -0.0551,0.0326 -0.100252,0.07292 -0.100252,0.08992 0,0.017 0.10286,0.201414 0.22841,0.409795 l 0.22841,0.378788 0.110071,-0.07597 c 0.0607,-0.0419 0.115676,-0.07973 0.121956,-0.08423 0.0108,-0.008 -0.381676,-0.64266 -0.454236,-0.734838 -0.01325,-0.01685 -0.02714,-0.02417 -0.04754,-0.0217 z m 1.393196,0.09405 c -0.0191,-0.006 -0.07826,0.02376 -0.131258,0.06666 l -0.09612,0.07803 0.263033,0.425297 c 0.14482,0.233971 0.271853,0.425296 0.282153,0.425296 0.0103,0 0.0639,-0.02663 0.119373,-0.05943 0.0555,-0.0328 0.100319,-0.0758 0.09922,-0.0956 -0.003,-0.0544 -0.496552,-0.827519 -0.536402,-0.840261 z m -0.345715,0.23668 c -0.02963,-0.0018 -0.06523,0.01846 -0.119889,0.06046 l -0.08372,0.0646 0.08165,0.134359 c 0.270161,0.444521 0.454593,0.70745 0.496093,0.70745 0.0261,0 0.07579,-0.03083 0.110071,-0.06873 0.0655,-0.0724 0.05288,-0.09829 -0.401526,-0.825272 -0.02945,-0.04715 -0.05306,-0.07108 -0.08268,-0.07286 z m 10.577132,0.176215 c -0.0488,0.02804 -0.184044,0.116398 -0.363802,0.241329 l -0.364837,0.253731 0.07338,0.130225 c 0.0404,0.0718 0.08534,0.130741 0.09973,0.130741 0.0144,0 0.183349,-0.110765 0.375687,-0.246496 0.181356,-0.127979 0.32212,-0.236186 0.349335,-0.2651 a 12.456052,12.456052 0 0 0 -0.1695,-0.24443 z m 0.234611,0.341064 c -0.136879,0.07798 -0.723643,0.501513 -0.724503,0.528135 -0.002,0.0595 0.156803,0.261429 0.189651,0.241329 0.0195,-0.0119 0.187346,-0.128595 0.373105,-0.259416 0.170963,-0.120391 0.298116,-0.21772 0.329694,-0.249081 a 12.456052,12.456052 0 0 0 -0.167947,-0.260967 z m -1.987991,0.03307 c -0.0505,-3.68e-4 -0.716754,0.461698 -0.716754,0.497128 0,0.0732 0.14696,0.266333 0.185518,0.243914 0.0222,-0.0129 0.185065,-0.123671 0.361736,-0.24598 0.17667,-0.122301 0.32091,-0.235535 0.32091,-0.251664 0,-0.0506 -0.119642,-0.243168 -0.15141,-0.243398 z m -7.457944,0.01447 c -0.0316,-0.0195 -0.238745,0.121812 -0.238745,0.162782 0,0.0319 0.562543,0.933792 0.582393,0.933792 0.008,0 0.06376,-0.03385 0.124024,-0.07545 0.0602,-0.0416 0.115443,-0.08007 0.122473,-0.08527 0.0162,-0.0121 -0.551105,-0.91173 -0.590145,-0.93586 z m -1.772502,0.05426 -0.11007,0.07596 c -0.0604,0.0417 -0.11516,0.07973 -0.12144,0.08423 -0.0153,0.011 0.423281,0.740579 0.445451,0.74104 0.01,2.09e-4 0.06715,-0.04205 0.127641,-0.09405 l 0.11007,-0.09457 -0.225825,-0.35605 z m 1.399915,0.175699 c -0.0123,6.8e-4 -0.06787,0.0381 -0.12299,0.0832 l -0.100252,0.08216 0.287837,0.472323 c 0.15831,0.259789 0.294821,0.472321 0.303341,0.472321 0.009,0 0.06083,-0.03233 0.116272,-0.07183 0.0555,-0.0395 0.101286,-0.08621 0.101286,-0.10387 0,-0.045 -0.558254,-0.935839 -0.585494,-0.93431 z m 8.626347,0.04496 c -0.0386,0.0148 -0.728745,0.488704 -0.794785,0.545703 -0.0426,0.0367 0.124722,0.278969 0.178801,0.2589 0.0251,-0.009 0.208875,-0.127838 0.408244,-0.263549 0.199361,-0.135702 0.37102,-0.261474 0.381889,-0.279053 0.0294,-0.0476 -0.12549,-0.28067 -0.174149,-0.262001 z m 1.425752,0.04496 c -0.05171,0.02669 -0.192831,0.116906 -0.373105,0.241845 -0.3634,0.25183 -0.378841,0.26711 -0.333311,0.338479 0.0262,0.0411 0.05928,0.09447 0.07338,0.11834 0.0141,0.0239 0.0419,0.04341 0.0615,0.04341 0.0197,0 0.205938,-0.117858 0.41393,-0.261998 l 0.314709,-0.218075 a 12.456052,12.456052 0 0 0 -0.157097,-0.261998 z m -10.405566,0.164846 c -0.01975,0.002 -0.04456,0.01548 -0.0832,0.04083 -0.0557,0.0365 -0.08508,0.08028 -0.07338,0.110588 0.0225,0.0586 0.55218,0.909904 0.56689,0.911055 0.005,4.29e-4 0.0485,-0.0245 0.0956,-0.0553 0.0471,-0.0309 0.08578,-0.07143 0.08578,-0.09043 0,-0.0382 -0.471292,-0.81557 -0.539502,-0.889868 -0.01795,-0.01955 -0.03245,-0.02887 -0.05219,-0.02687 z m 7.2378,0.125574 c -0.0173,0 -0.637749,0.409418 -0.685229,0.45217 -0.0415,0.0374 0.150519,0.315875 0.198438,0.287837 0.0215,-0.0126 0.176011,-0.116977 0.343133,-0.232029 0.167129,-0.115059 0.303855,-0.223538 0.303855,-0.241329 0,-0.0382 -0.137165,-0.266649 -0.160197,-0.266649 z m 1.998845,0.0036 -0.40721,0.278022 c -0.22384,0.15271 -0.412308,0.292158 -0.418578,0.310057 -0.0147,0.042 0.127084,0.241845 0.171566,0.241845 0.01859,0 0.213185,-0.126389 0.432014,-0.280601 0.248433,-0.175117 0.389771,-0.295555 0.375172,-0.32091 -0.0129,-0.0223 -0.05277,-0.08286 -0.08837,-0.134361 z m 1.378728,0.06046 c -0.146669,0.07808 -0.715918,0.478335 -0.716235,0.509013 -2.09e-4,0.0194 0.04065,0.09595 0.09095,0.170016 l 0.09147,0.134358 -0.08268,0.06408 c -0.0455,0.035 -0.09288,0.06368 -0.105421,0.06408 -0.0125,4.2e-4 -0.06463,-0.07041 -0.115755,-0.157613 l -0.09302,-0.158131 -0.0925,0.05943 c -0.051,0.0329 -0.245851,0.167893 -0.43253,0.299725 l -0.338998,0.239778 0.07028,0.0987 c 0.0911,0.127942 0.08854,0.153156 -0.02015,0.211357 -0.0958,0.0513 -0.09979,0.04918 -0.205156,-0.121439 -0.0298,-0.0483 -0.0909,-0.01636 -0.434083,0.226859 -0.219649,0.15566 -0.405,0.287848 -0.411861,0.29404 -0.007,0.006 0.02358,0.06124 0.06718,0.122473 l 0.07907,0.111619 -0.07907,0.06408 c -0.10691,0.0866 -0.13036,0.08181 -0.19327,-0.03979 -0.0296,-0.0573 -0.06333,-0.104386 -0.07493,-0.104386 -0.0163,0 -0.662215,0.4462462 -0.740524,0.5115962 -0.009,0.008 0.01658,0.07294 0.05788,0.144695 l 0.07545,0.130741 -0.102319,0.05994 -0.101804,0.0605 -0.06046,-0.107486 c -0.0362,-0.0643 -0.08227,-0.10202 -0.114205,-0.09405 -0.0589,0.0147 -0.797368,0.538776 -0.797368,0.565856 0,0.009 0.03953,0.0747 0.08733,0.14521 l 0.08682,0.12816 -0.07855,0.0599 c -0.10762,0.0828 -0.122645,0.0788 -0.202055,-0.0558 -0.0382,-0.0648 -0.100376,-0.12608 -0.137976,-0.13591 -0.0421,-0.011 -0.06099,-0.0372 -0.04909,-0.0682 0.0243,-0.0633 -0.108964,-0.29322 -0.197404,-0.34055 -0.0366,-0.0196 -0.05739,-0.0507 -0.04599,-0.0692 0.0278,-0.045 -0.111801,-0.266864 -0.196371,-0.312124 -0.037,-0.0198 -0.05854,-0.05103 -0.04754,-0.06873 0.0186,-0.0301 -0.0041,-0.08582 -0.08268,-0.203088 -0.0253,-0.0378 -0.165037,0.04345 -0.652157,0.378788 -0.34107,0.234774 -0.633343,0.438484 -0.649573,0.452684 -0.0162,0.0142 0.09765,0.35857 0.253215,0.76533 0.27517,0.71972 0.28618,0.75967 0.40411,1.48621 0.0666,0.41062 0.113193,0.7676 0.103353,0.79324 -0.01,0.0256 0.005,0.0553 0.03359,0.0661 0.0283,0.0109 0.05116,0.0557 0.05116,0.0997 0,0.12217 2.370015,3.96536 3.746026,6.07456 0.513095,0.78648 0.868391,1.34631 1.044379,1.63556 a 12.456052,12.456052 0 0 0 2.937806,-8.03465 12.456052,12.456052 0 0 0 -1.628325,-6.1572502 z m -1.161688,0.301273 -0.342095,0.235127 c -0.188132,0.129382 -0.376666,0.262224 -0.419098,0.295074 l -0.077,0.05943 0.07183,0.113171 c 0.0395,0.0621 0.08282,0.112654 0.09612,0.112654 0.0133,0 0.203438,-0.126016 0.422195,-0.280085 0.218761,-0.15407 0.401508,-0.290799 0.406178,-0.303858 0.005,-0.0131 -0.02913,-0.07044 -0.07493,-0.127641 z m -1.49448,0.01705 c -0.044,0 -0.804085,0.534421 -0.804087,0.56534 0,0.0359 0.135091,0.233061 0.159681,0.233061 0.009,0 0.183372,-0.113184 0.387572,-0.251664 0.2042,-0.13847 0.384056,-0.260974 0.399976,-0.272335 0.0296,-0.0211 -0.102534,-0.274402 -0.143142,-0.274402 z m -8.41034,0.02222 c -0.0281,-0.0305 -0.242363,0.108416 -0.242363,0.157096 0,0.0462 0.397628,0.686874 0.426848,0.687814 0.0151,4.79e-4 0.07369,-0.03313 0.130224,-0.07493 0.0565,-0.0418 0.102837,-0.08848 0.102837,-0.103355 0,-0.0267 -0.365116,-0.609605 -0.417546,-0.666625 z m 6.768062,0.220657 c -0.0179,0 -0.173221,0.09449 -0.344682,0.209807 -0.29182,0.19622 -0.308864,0.214328 -0.270784,0.286287 0.0633,0.119711 0.14017,0.233061 0.15813,0.233061 0.009,0 0.155798,-0.09615 0.326078,-0.21394 0.17028,-0.1178 0.309542,-0.226528 0.309542,-0.241329 0,-0.0503 -0.145504,-0.273886 -0.178284,-0.273886 z m 1.854667,0.132292 c -0.0576,0.01216 -0.171588,0.08072 -0.398426,0.236162 -0.216029,0.148029 -0.398605,0.273809 -0.406175,0.279569 -0.008,0.006 0.02818,0.07428 0.07958,0.151929 l 0.09353,0.141076 0.389125,-0.267685 c 0.21404,-0.147018 0.395208,-0.271989 0.402558,-0.278018 0.0222,-0.0182 -0.06979,-0.216684 -0.119372,-0.257866 -0.0089,-0.0074 -0.02163,-0.0092 -0.04083,-0.0052 z m -1.245918,0.338481 c -0.0084,-0.0018 -0.01642,-0.001 -0.02325,0.0031 -0.140192,0.0844 -0.686934,0.473911 -0.703834,0.501261 -0.0186,0.0301 0.107041,0.240295 0.143661,0.240295 0.009,0 0.179832,-0.112453 0.379822,-0.250114 0.199988,-0.13767 0.363355,-0.258884 0.363284,-0.269234 -6.9e-5,-0.0104 -0.03188,-0.07031 -0.07028,-0.133324 -0.03345,-0.0549 -0.0643,-0.08648 -0.0894,-0.09199 z m 1.489832,0.02584 c -0.0381,-0.0151 -0.755044,0.450977 -0.796335,0.517798 -0.0174,0.0281 0.115977,0.270785 0.148828,0.270782 0.009,0 0.194659,-0.127476 0.412377,-0.283186 l 0.395843,-0.283186 -0.05943,-0.102836 c -0.0328,-0.0565 -0.07832,-0.110233 -0.101285,-0.119372 z m -2.978113,0.09405 c -0.0367,0 -0.509272,0.307528 -0.587562,0.382408 -0.0443,0.0424 0.145484,0.354396 0.197404,0.324527 0.0228,-0.0131 0.166561,-0.110191 0.319361,-0.21549 0.1528,-0.105301 0.282671,-0.195032 0.288871,-0.199472 0.025,-0.0179 -0.179715,-0.291973 -0.218074,-0.291973 z m 1.693952,0.223245 c -0.0344,0.0132 -0.452532,0.290121 -0.719852,0.476972 -0.0194,0.0135 0.006,0.08302 0.06046,0.165365 l 0.09405,0.14211 0.320395,-0.213423 c 0.17626,-0.11747 0.347726,-0.237453 0.380854,-0.266134 0.0569,-0.0493 0.0563,-0.05948 -0.0155,-0.187068 -0.0438,-0.0779 -0.09477,-0.127664 -0.120407,-0.117822 z m -1.161685,0.332277 c -0.0272,0 -0.699393,0.441444 -0.823723,0.5410542 -0.0201,0.0161 0.111651,0.222724 0.14211,0.222724 0.0156,0 0.19632,-0.111329 0.40101,-0.247528 0.20468,-0.1362102 0.385059,-0.2594852 0.401009,-0.2738862 0.0358,-0.0323 -0.06853,-0.242364 -0.120406,-0.242364 z m 1.410767,0.03462 c -0.0325,-2.09e-4 -0.65831,0.418653 -0.725022,0.4852442 -0.0343,0.0343 0.103436,0.278534 0.157096,0.278534 0.0188,0 0.189527,-0.109868 0.379307,-0.24443 0.189788,-0.1345592 0.345197,-0.2582172 0.345197,-0.2749182 0,-0.0551 -0.121169,-0.244207 -0.156578,-0.24443 z m -1.193726,0.301276 c -0.05126,0.0054 -0.162531,0.07146 -0.417546,0.2392602 -0.23026,0.151612 -0.419242,0.287719 -0.419613,0.302308 -9.4e-4,0.0377 0.151517,0.267681 0.177767,0.2682 0.012,2.51e-4 0.199332,-0.119782 0.416512,-0.266134 0.217191,-0.146359 0.399997,-0.269732 0.406177,-0.274402 0.0113,-0.008 -0.06576,-0.1617182 -0.128674,-0.2557962 -0.0068,-0.01013 -0.01754,-0.01522 -0.03462,-0.01344 z m 0.22996,0.3586322 c -0.0457,-4.68e-4 -0.824239,0.530164 -0.824239,0.561724 0,0.0166 0.04107,0.0923 0.09147,0.16847 l 0.09147,0.13849 0.108004,-0.0806 c 0.0594,-0.0444 0.21771,-0.15671 0.3514,-0.2496 0.392671,-0.272797 0.374584,-0.247132 0.285252,-0.403591 -0.0422,-0.074 -0.08888,-0.134737 -0.103351,-0.134877 z m -10.148218,4.201814 c -0.009,0 -0.119146,0.0734 -0.243396,0.16278 -0.20969,0.15085 -0.222374,0.16734 -0.179834,0.23409 0.0252,0.0395 0.05775,0.0925 0.07235,0.11731 0.0326,0.0551 0.02883,0.0567 0.292489,-0.11472 0.22515,-0.14637 0.258864,-0.19121 0.144694,-0.19121 -0.054,0 -0.06925,-0.0229 -0.06925,-0.10387 0,-0.0573 -0.008,-0.10438 -0.01705,-0.10438 z m 8.021216,0.17363 c -0.13069,0 -0.131993,10e-4 -0.100252,0.0842 0.0255,0.0663 0.07959,0.0683 0.16123,0.007 v -5.2e-4 c 0.0898,-0.0682 0.07462,-0.0904 -0.06098,-0.0904 z m -7.571631,0.0346 c -0.0719,0 -0.675928,0.40875 -0.675928,0.45734 0,0.0211 0.03233,0.0905 0.07183,0.15451 l 0.07183,0.11627 0.26665,-0.1788 c 0.14667,-0.0984 0.278459,-0.19588 0.292489,-0.21652 0.014,-0.0206 0.02564,-0.10382 0.02584,-0.185 4e-4,-0.1099 -0.01291,-0.1478 -0.05271,-0.1478 z m 7.885824,0.17415 c -0.0198,1e-4 -0.08101,0.0357 -0.135909,0.0796 l -0.09974,0.0801 0.219625,0.35192 0.220141,0.3514 0.10077,-0.0584 c 0.0555,-0.0322 0.108522,-0.0773 0.117822,-0.10077 0.0204,-0.0514 -0.371583,-0.70408 -0.422713,-0.70383 z m -9.0263235,0.11472 c -0.10283,0.0395 -0.801653,0.55482 -0.793233,0.58498 0.0124,0.0445 0.116028,0.20257 0.132809,0.20257 0.007,0 0.149953,-0.0959 0.317293,-0.21342 0.16734,-0.11749 0.355592,-0.25152 0.418062,-0.29766 l 0.1131715,-0.0837 -0.073901,-0.10387 c -0.0408,-0.0572 -0.09198,-0.0974 -0.114205,-0.0889 z m 8.3493615,0.19741 c -0.0722,0 0.03213,0.27157 0.236162,0.61546 0.12716,0.21433 0.233458,0.39013 0.236678,0.39068 0.003,5.5e-4 0.03078,-0.008 0.06098,-0.0202 0.0302,-0.0116 0.05478,-0.0371 0.05478,-0.0568 0,-0.0485 -0.557875,-0.92915 -0.588595,-0.92915 z m -7.235217,0.0346 c -0.037,0 -0.441317,0.27457 -0.441317,0.29972 0,0.0107 0.03265,0.0653 0.07235,0.12092 0.0759,0.10667 0.08353,0.10579 0.263033,-0.0289 0.0889,-0.0667 0.111967,-0.11102 0.121957,-0.23667 0.007,-0.0851 -5e-4,-0.15503 -0.01602,-0.15503 z m -0.900203,0.0904 c -0.0346,0.003 -0.7163895,0.4626 -0.8195895,0.55293 -0.0175,0.0153 0.147003,0.25894 0.175183,0.25942 0.0138,2.5e-4 0.201669,-0.11953 0.417029,-0.26614 0.2153605,-0.1466 0.3989445,-0.27305 0.4082445,-0.2806 0.0322,-0.0261 -0.133427,-0.26923 -0.180867,-0.26561 z m -1.2283495,0.36328 -0.389124,0.25993 c -0.21391,0.14293 -0.389123,0.27364 -0.389123,0.29094 0,0.0726 0.124938,0.24454 0.166398,0.22893 0.0247,-0.009 0.200484,-0.12828 0.390674,-0.26407 v 5.2e-4 c 0.19019,-0.13579 0.345835,-0.26525 0.345715,-0.28732 -1.4e-4,-0.0221 -0.02833,-0.0824 -0.06253,-0.13436 z m 1.4639935,0.0155 c -0.064,0 -0.8179885,0.50676 -0.8180385,0.54984 -2e-5,0.0162 0.03223,0.0751 0.07183,0.13074 l 0.07183,0.10129 0.33693,-0.23461 c 0.1853205,-0.12909 0.3753665,-0.2626 0.4221975,-0.29611 0.0824,-0.059 0.08339,-0.0637 0.02739,-0.15606 -0.0318,-0.0524 -0.08225,-0.0951 -0.112138,-0.0951 z m 7.962305,0.0692 0.02119,0.22583 c 0.0118,0.12415 0.03034,0.27696 0.04134,0.33951 l 0.02015,0.11369 0.108521,-0.0687 c 0.0595,-0.0377 0.111701,-0.0813 0.116272,-0.0966 0.005,-0.0153 -0.06289,-0.13709 -0.149862,-0.27078 z m 1.185974,0.0176 c -0.01,3e-5 -0.06409,0.0377 -0.12144,0.0837 l -0.104386,0.0837 0.0677,0.11576 c 0.149,0.25563 0.371475,0.58446 0.395325,0.58446 0.0139,0 0.06392,-0.0261 0.111104,-0.0579 0.0472,-0.0319 0.09192,-0.0624 0.09922,-0.0682 0.0165,-0.0129 -0.423348,-0.74167 -0.447518,-0.74156 z m -10.4071175,0.24288 c -0.0303,0 -0.774759,0.53044 -0.774629,0.5519 2.8e-4,0.0453 0.139442,0.2465 0.170532,0.2465 0.0182,0 0.190592,-0.11077 0.382922,-0.2465 0.19234,-0.13574 0.357263,-0.25984 0.366903,-0.27543 0.0174,-0.0281 -0.113488,-0.27647 -0.145728,-0.27647 z m 1.8164275,0.0796 c -0.0219,-0.0219 -0.550604,0.34327 -0.566374,0.39119 -0.0115,0.0349 0.114121,0.25838 0.145211,0.25838 0.0101,0 0.102425,-0.0558 0.205155,-0.12402 h 5.17e-4 c 0.17965,-0.11929 0.187313,-0.13108 0.210323,-0.31523 0.0132,-0.1053 0.01577,-0.20011 0.0052,-0.21032 z m 8.038269,0.21652 c -0.01501,4.5e-4 -0.02856,0.0109 -0.04703,0.0248 -0.0525,0.0395 -0.03226,0.0853 0.206706,0.46922 0.25267,0.4059 0.336032,0.48826 0.379822,0.37414 0.0112,-0.0293 -0.08136,-0.21249 -0.215491,-0.42582 -0.22335,-0.35532 -0.278995,-0.44369 -0.324011,-0.44235 z m -11.0804615,0.0584 c -0.0923,0.0359 -0.867724,0.57222 -0.868164,0.60048 -7.2e-4,0.0464 0.130947,0.26045 0.160197,0.26045 0.0127,0 0.204254,-0.1273 0.425814,-0.28267 0.22156,-0.15536 0.416825,-0.29492 0.433565,-0.31006 0.0339,-0.0307 -0.109422,-0.28454 -0.151412,-0.2682 z m 1.446424,0.0186 c -0.0158,7.6e-4 -0.197887,0.12165 -0.404627,0.26872 l -0.375688,0.26716 0.05736,0.10077 c 0.0315,0.0554 0.07428,0.10117 0.09508,0.10129 0.0208,10e-5 0.200569,-0.11142 0.399459,-0.24805 0.19889,-0.13663 0.367077,-0.25317 0.374137,-0.2589 0.0212,-0.0172 -0.114677,-0.23249 -0.145727,-0.23099 z m 9.4273315,0.0884 c -0.07147,0.005 -0.247496,0.13532 -0.221692,0.17725 0.40694,0.6612 0.512026,0.81974 0.543636,0.81959 0.0209,-10e-5 0.08075,-0.0352 0.132809,-0.078 l 0.09457,-0.078 -0.251147,-0.40514 c -0.13802,-0.22284 -0.261599,-0.41611 -0.274919,-0.42944 -0.005,-0.005 -0.01304,-0.007 -0.02325,-0.006 z m 1.34307,0.23048 -0.109553,0.0703 c -0.0602,0.0388 -0.10641,0.0846 -0.10232,0.1018 0.004,0.0172 0.112552,0.19734 0.240812,0.39998 0.21877,0.34562 0.237691,0.36553 0.303341,0.32194 0.0385,-0.0256 0.08398,-0.0692 0.101286,-0.0966 0.0224,-0.0355 -0.03513,-0.15701 -0.201021,-0.42375 z m -11.9594765,0.0351 c -0.0241,-0.0202 -0.187367,0.074 -0.458887,0.26458 -0.23178,0.16269 -0.428169,0.30679 -0.436149,0.3204 -0.0275,0.047 0.152234,0.2889 0.195854,0.26355 0.0232,-0.0135 0.225908,-0.15579 0.450618,-0.31626 l 0.408244,-0.29198 -0.06098,-0.10438 c -0.0337,-0.0574 -0.0781,-0.11866 -0.0987,-0.13591 z m 10.3476895,0.10749 c -0.0036,-6.4e-4 -0.0059,0.001 -0.0067,0.006 -0.0287,0.14904 0.06074,0.55667 0.155029,0.70589 0.054,0.0855 0.106205,0.15465 0.115755,0.154 0.01,-6.6e-4 0.05977,-0.0361 0.111621,-0.0786 l 0.09509,-0.0775 -0.233061,-0.38137 c -0.12229,-0.19997 -0.212554,-0.32372 -0.237711,-0.32815 z m -11.7005785,0.24804 -0.380339,0.25787 c -0.20906,0.14182 -0.39364,0.27117 -0.41031,0.28784 -0.044,0.044 0.141096,0.32494 0.193786,0.29404 0.0232,-0.0136 0.19864,-0.13395 0.38964,-0.26769 0.191001,-0.13373 0.358251,-0.25267 0.372071,-0.26407 0.0138,-0.0114 -0.01746,-0.0853 -0.06976,-0.16433 z m 1.544092,0.0145 c -0.0412,0.003 -0.74137,0.47685 -0.84491,0.57206 -0.0356,0.0327 0.0652,0.20619 0.119889,0.20619 0.0194,0 0.218114,-0.12751 0.441834,-0.28319 0.22373,-0.15567 0.41419,-0.28939 0.42323,-0.29713 0.032,-0.0274 -0.09102,-0.20127 -0.140043,-0.19793 z m 11.2944015,0.24753 c -0.0155,0.004 -0.03349,0.0131 -0.05064,0.0258 -0.058,0.0429 -0.04238,0.0788 0.224792,0.51574 0.15798,0.25833 0.303408,0.46057 0.322978,0.44958 0.0196,-0.011 0.05378,-0.0342 0.07648,-0.0517 0.0301,-0.0232 -0.03469,-0.15235 -0.237195,-0.47232 -0.15326,-0.24212 -0.28906,-0.45102 -0.30179,-0.46406 -0.0064,-0.007 -0.01912,-0.007 -0.03462,-0.003 z m -12.5966475,0.12041 c -0.007,-0.01 -0.72462,0.48901 -0.79065,0.54932 -0.0159,0.0146 0.01203,0.092 0.06253,0.17208 l 0.09198,0.14521 0.110587,-0.0832 c 0.061,-0.0459 0.239812,-0.17382 0.397392,-0.2837 0.15758,-0.10988 0.286804,-0.21527 0.286804,-0.23461 0,-0.029 -0.03424,-0.0864 -0.158646,-0.2651 z m 12.3961425,0.0341 c -0.009,-0.0138 -0.111677,0.0436 -0.196887,0.11059 -0.0573,0.045 -0.04169,0.0801 0.220658,0.50436 0.15503,0.25067 0.299884,0.45486 0.321944,0.45424 0.0221,-6.4e-4 0.07688,-0.0317 0.121957,-0.0692 0.0525,-0.0438 0.07414,-0.0887 0.05994,-0.12558 -0.0159,-0.0415 -0.439897,-0.74403 -0.527617,-0.87436 z m 1.281059,0.20257 c -0.0358,0 -0.218236,0.12035 -0.209807,0.13849 0.0234,0.0502 0.496188,0.79799 0.50488,0.7984 0.005,2.8e-4 0.0485,-0.025 0.0956,-0.0558 v 5.2e-4 c 0.0471,-0.0308 0.08578,-0.0721 0.08578,-0.0915 0,-0.0408 -0.451875,-0.79013 -0.476455,-0.79013 z m -1.648995,0.0346 c -0.0133,-1.7e-4 -0.0632,0.0351 -0.111104,0.078 l -0.08682,0.078 0.292489,0.44287 c 0.16077,0.24352 0.30443,0.44226 0.31936,0.44183 0.0149,-4.2e-4 0.06116,-0.0275 0.102836,-0.0605 l 0.07597,-0.0599 -0.284221,-0.45992 c -0.15631,-0.25291 -0.295248,-0.46027 -0.308508,-0.46044 z m -11.8220175,0.11834 c -0.0725,0.0278 -0.776697,0.54507 -0.776697,0.57051 0,0.0604 0.112592,0.17806 0.149862,0.15658 0.0226,-0.013 0.209361,-0.13914 0.414961,-0.28061 l 0.373621,-0.25735 -0.06046,-0.10231 c -0.0333,-0.0563 -0.07889,-0.0954 -0.101285,-0.0868 z m 11.5166095,0.0909 c -0.01,-1.8e-4 -0.04353,0.019 -0.07493,0.0429 -0.0525,0.04 -0.04321,0.14635 0.112655,1.32757 0.0931,0.70607 0.383085,2.5688 0.644405,4.1398 0.110061,0.66164 0.19986,1.21552 0.278536,1.70325 a 12.456052,12.456052 0 0 0 2.008147,-1.25935 c -0.04461,-0.0365 -0.09016,-0.13301 -0.06046,-0.15245 0.43642,-0.28578 0.496094,-0.33239 0.480074,-0.37414 -0.01,-0.0259 -0.136922,-0.24193 -0.282152,-0.48007 l -0.264068,-0.43305 -0.232026,0.15606 -0.23151,0.15607 -0.0615,-0.0749 c -0.0598,-0.073 -0.05841,-0.0765 0.05219,-0.15865 0.0624,-0.0464 0.164264,-0.11586 0.226343,-0.15451 0.0621,-0.0387 0.112654,-0.0859 0.112654,-0.10439 0,-0.0325 -0.464343,-0.80857 -0.567922,-0.94929 -0.0495,-0.0672 -0.05512,-0.0661 -0.244947,0.0646 -0.16042,0.11048 -0.20299,0.12662 -0.24598,0.091 -0.087,-0.0722 -0.06041,-0.12158 0.13901,-0.2589 0.105049,-0.0724 0.190686,-0.13948 0.190686,-0.14883 0,-0.0169 -0.276816,-0.48342 -0.452686,-0.76274 l -0.09198,-0.14573 -0.181384,0.12247 c -0.14546,0.098 -0.190984,0.11383 -0.230994,0.0806 -0.084,-0.0697 -0.05716,-0.12394 0.12299,-0.24598 0.0951,-0.0644 0.165893,-0.136 0.157613,-0.15916 -0.0228,-0.0639 -0.441519,-0.72907 -0.523999,-0.83251 l -0.07235,-0.0909 -0.135909,0.092 c -0.16538,0.11238 -0.168091,0.11278 -0.215491,0.008 -0.0346,-0.076 -0.02611,-0.0919 0.09819,-0.17415 0.0752,-0.0498 0.136942,-0.10057 0.136942,-0.11266 0,-0.0317 -0.569405,-0.91174 -0.590145,-0.91209 z m 1.569413,0.51056 c -0.01287,8.2e-4 -0.02581,0.008 -0.04186,0.0176 -0.0398,0.0248 -0.06164,0.0657 -0.05064,0.0946 0.0502,0.13083 0.557228,0.90434 0.592728,0.90434 0.0221,0 0.05928,-0.023 0.08268,-0.0512 0.0444,-0.0534 0.03776,-0.0658 -0.404627,-0.75654 -0.10359,-0.16173 -0.139686,-0.21122 -0.178284,-0.20877 z m -0.248046,0.17053 c -0.03328,0.005 -0.07921,0.035 -0.155547,0.092 -0.0647,0.0483 -0.06212,0.0573 0.07338,0.27182 0.32721,0.51805 0.467003,0.72518 0.489893,0.72502 0.0134,-1.1e-4 0.06875,-0.0357 0.122989,-0.0791 l 0.0987,-0.0791 -0.25063,-0.39843 c -0.13772,-0.21914 -0.272237,-0.43367 -0.299207,-0.47697 -0.0256,-0.0411 -0.0463,-0.0605 -0.07958,-0.0553 z m -0.319361,0.22221 c -0.0122,-9.1e-4 -0.05787,0.028 -0.101802,0.0636 l -0.0801,0.0646 0.210323,0.32608 c 0.11556,0.17927 0.252218,0.39324 0.303858,0.47594 0.0889,0.14236 0.09756,0.14803 0.169498,0.10025 0.0418,-0.0277 0.07648,-0.0706 0.07648,-0.0951 h -5.17e-4 c 0,-0.0514 -0.544443,-0.93286 -0.577743,-0.93534 z m 1.285194,0.74208 c -0.0177,0.003 -0.03841,0.012 -0.05891,0.0264 -0.0669,0.0469 -0.05926,0.0636 0.214458,0.48937 0.15589,0.24243 0.292153,0.44136 0.302824,0.44183 0.0107,4.7e-4 0.04595,-0.019 0.07855,-0.0429 0.0539,-0.0394 0.03508,-0.0814 -0.202571,-0.45888 -0.14392,-0.22858 -0.275338,-0.42985 -0.292489,-0.447 -0.0092,-0.009 -0.02416,-0.0119 -0.04186,-0.009 z m -0.240296,0.15916 c -0.0161,0 -0.07113,0.0364 -0.122473,0.0806 l -0.09302,0.0801 0.0863,0.13694 c 0.51228,0.81046 0.473842,0.77418 0.664043,0.63201 0.0608,-0.0454 0.04878,-0.0732 -0.220142,-0.48886 -0.156781,-0.24231 -0.29864,-0.4408 -0.31471,-0.4408 z m -0.316777,0.25321 c -0.03314,-0.0131 -0.06819,0.005 -0.12454,0.0439 l -0.07648,0.0532 0.196887,0.31988 c 0.413419,0.67246 0.359683,0.6168 0.494543,0.51315 l 0.08527,-0.0651 -0.186036,-0.28991 c -0.102069,-0.15941 -0.225825,-0.356 -0.275435,-0.43718 -0.04965,-0.0812 -0.08107,-0.12492 -0.114205,-0.13798 z m 1.254703,0.6501 c -0.011,0 -0.04516,0.0195 -0.07597,0.0434 -0.0497,0.0385 -0.01998,0.0992 0.262517,0.53743 0.306001,0.4748 0.384334,0.55602 0.427366,0.4439 0.0183,-0.0477 -0.567066,-1.02474 -0.613918,-1.02474 z m -0.230992,0.17363 c -0.0637,0 -0.220324,0.13027 -0.208775,0.17363 0.0213,0.08 0.609812,0.97243 0.640273,0.971 0.0147,-6.8e-4 0.07131,-0.0373 0.125574,-0.0816 v -5.2e-4 l 0.09818,-0.0806 -0.318844,-0.49092 c -0.17554,-0.2701 -0.326982,-0.49093 -0.336412,-0.49093 z m -0.375171,0.24391 c -0.03982,-0.008 -0.07238,0.0264 -0.120407,0.0842 -0.0383,0.0461 7.65e-4,0.12953 0.259416,0.55656 0.321839,0.53135 0.308811,0.52025 0.48369,0.38963 0.064,-0.0478 0.053,-0.0712 -0.257347,-0.55603 -0.212063,-0.33121 -0.298992,-0.46126 -0.365352,-0.47439 z m 1.336868,0.78186 c -0.0068,-5e-5 -0.01317,0.002 -0.02015,0.005 -0.0325,0.0125 -0.04824,0.0465 -0.03824,0.0847 0.01936,0.0741 0.467858,0.77189 0.552421,0.86507 a 12.456052,12.456052 0 0 0 0.0832,-0.0842 c -0.01809,-0.0481 -0.0561,-0.11782 -0.122989,-0.2248 -0.345651,-0.5514 -0.4069,-0.64505 -0.454236,-0.64543 z m -0.197919,0.15503 c -0.0422,0 -0.218594,0.12255 -0.218594,0.15193 0,0.0181 0.127379,0.23302 0.283189,0.47749 l 0.283186,0.44442 0.102836,-0.0594 c 0.0564,-0.0327 0.110143,-0.0786 0.119372,-0.1018 0.0153,-0.0384 -0.530751,-0.91261 -0.569989,-0.91261 z m -0.328147,0.25735 c -0.0339,-0.021 -0.237712,0.091 -0.237712,0.13074 0,0.0214 0.275058,0.48376 0.508497,0.85422 0.0491,0.078 0.05171,0.0784 0.156581,0.0176 0.0586,-0.034 0.114196,-0.0815 0.123505,-0.10491 0.0158,-0.0399 -0.486069,-0.85758 -0.550871,-0.89762 z" />
    <text
       id="text940"
       y="22.4137"
       x="31.551594"
       style="font-style:normal;font-variant:normal;font-weight:normal;font-stretch:normal;font-size:20.8855px;line-height:1.25;font-family:Raleway;-inkscape-font-specification:Raleway;letter-spacing:0px;word-spacing:0px;fill:#333333;fill-opacity:1;stroke:none;stroke-width:0.522138"
       xml:space="preserve"><tspan
         style="font-style:normal;font-variant:normal;font-weight:bold;font-stretch:normal;font-family:Cardo;-inkscape-font-specification:'Cardo Bold';fill:#333333;fill-opacity:1;stroke-width:0.522138"
         y="22.4137"
         x="31.551594"
         id="tspan938"
         sodipodi:role="line"><tspan
           id="tspan934"
           style="font-style:normal;font-variant:normal;font-weight:bold;font-stretch:normal;font-size:22.5778px;font-family:Cardo;-inkscape-font-specification:'Cardo Bold';fill:#333333">E</tspan><tspan
           style="font-style:normal;font-variant:normal;font-weight:bold;font-stretch:normal;font-size:19.7556px;font-family:Cardo;-inkscape-font-specification:'Cardo Bold';fill:#333333"
           id="tspan936">QUILATERUS</tspan></tspan></text>
  </g>
</svg>
