<?xml version="1.0" encoding="UTF-8" standalone="no"?>
<!-- Created with Inkscape (http://www.inkscape.org/) -->

<svg
   width="537.54083"
   height="106.92594"
   viewBox="0 0 174.55299 34.721535"
   version="1.1"
   id="svg1"
   inkscape:version="1.3 (0e150ed6c4, 2023-07-21)"
   sodipodi:docname="logo-solo-text.svg"
   xmlns:inkscape="http://www.inkscape.org/namespaces/inkscape"
   xmlns:sodipodi="http://sodipodi.sourceforge.net/DTD/sodipodi-0.dtd"
   xmlns="http://www.w3.org/2000/svg"
   xmlns:svg="http://www.w3.org/2000/svg">
  <sodipodi:namedview
     id="namedview1"
     pagecolor="#ffffff"
     bordercolor="#000000"
     borderopacity="0.25"
     inkscape:showpageshadow="2"
     inkscape:pageopacity="0.0"
     inkscape:pagecheckerboard="0"
     inkscape:deskcolor="#d1d1d1"
     inkscape:document-units="px"
     inkscape:zoom="1.0041055"
     inkscape:cx="388.40539"
     inkscape:cy="200.67612"
     inkscape:window-width="1920"
     inkscape:window-height="1001"
     inkscape:window-x="0"
     inkscape:window-y="0"
     inkscape:window-maximized="1"
     inkscape:current-layer="layer1" />
  <defs
     id="defs1" />
  <g
     inkscape:label="Layer 1"
     inkscape:groupmode="layer"
     id="layer1">
    <g
       id="g2"
       transform="translate(-1533.0757,-774.06527)">
      <path
         d="m 1634.246,800.13135 h -2.2155 l -1.5702,-3.84001 v -11.34217 h -4.7695 l -1.6036,-3.79886 h 15.8504 v 3.79886 h -5.6916 z m 20.715,0 h -13.0114 v -18.98104 h 13.0114 v 3.79886 h -9.2126 v 3.79885 h 6.2344 v 3.79885 h -6.2344 v 3.78562 h 9.2126 z m 6.4593,-15.18218 v 7.5977 h 3.7989 c 0.5206,0 1.0103,-0.0971 1.4692,-0.2912 0.4589,-0.20295 0.8604,-0.47651 1.2045,-0.82066 0.3442,-0.34415 0.6134,-0.74565 0.8075,-1.20451 0.2029,-0.46769 0.3044,-0.96185 0.3044,-1.48248 0,-0.52063 -0.1015,-1.01038 -0.3044,-1.46924 -0.1941,-0.46769 -0.4633,-0.8736 -0.8075,-1.21775 -0.3441,-0.34415 -0.7456,-0.61329 -1.2045,-0.80743 -0.4589,-0.20295 -0.9486,-0.30443 -1.4692,-0.30443 z m 0,15.18218 h -3.7988 v -18.98104 h 7.5977 c 0.6971,0 1.3678,0.0927 2.0119,0.27797 0.6442,0.17649 1.2443,0.43239 1.8002,0.76771 0.5647,0.3265 1.0765,0.72359 1.5354,1.19128 0.4677,0.45886 0.8648,0.97067 1.1913,1.53542 0.3353,0.56475 0.5912,1.16922 0.7677,1.81339 0.1853,0.64417 0.278,1.31482 0.278,2.01194 0,0.653 -0.084,1.28835 -0.2515,1.90605 -0.1589,0.6177 -0.3927,1.20451 -0.7016,1.76044 -0.3,0.55593 -0.6706,1.06774 -1.1118,1.53543 -0.4412,0.46769 -0.9354,0.8736 -1.4825,1.21775 l 2.1046,4.96366 h -4.0371 l -1.6546,-3.82533 -4.2489,0.0265 z m 28.8422,-7.58448 c 0,1.05009 -0.1985,2.03841 -0.5956,2.96496 -0.3971,0.91773 -0.9398,1.72074 -1.6281,2.40903 -0.6883,0.67947 -1.4958,1.21776 -2.4223,1.61485 -0.9177,0.39709 -1.9016,0.59564 -2.9517,0.59564 -1.0501,0 -2.0384,-0.19855 -2.965,-0.59564 -0.9177,-0.39709 -1.7207,-0.93538 -2.409,-1.61485 -0.6795,-0.68829 -1.2177,-1.4913 -1.6148,-2.40903 -0.3971,-0.92655 -0.5957,-1.91487 -0.5957,-2.96496 v -11.39656 h 3.7856 v 11.39656 c 0,0.52063 0.097,1.01038 0.2912,1.46925 0.203,0.45886 0.4766,0.86036 0.8207,1.20451 0.3441,0.34415 0.7456,0.6177 1.2045,0.82066 0.4677,0.19413 0.9618,0.2912 1.4825,0.2912 0.5206,0 1.0103,-0.0971 1.4692,-0.2912 0.4677,-0.20296 0.8737,-0.47651 1.2178,-0.82066 0.3441,-0.34415 0.6133,-0.74565 0.8074,-1.20451 0.203,-0.45887 0.3045,-0.94862 0.3045,-1.46925 v -11.39656 h 3.7988 z m 2.184,-5.7049 c 0,-0.78536 0.15,-1.52219 0.4501,-2.21048 0.3,-0.68829 0.7059,-1.28834 1.2177,-1.80015 0.5207,-0.52063 1.1251,-0.93096 1.8134,-1.23099 0.6883,-0.30003 1.4251,-0.45004 2.2105,-0.45004 h 8.7095 v 3.79886 h -8.7095 c -0.2647,0 -0.5118,0.0485 -0.7413,0.1456 -0.2294,0.0971 -0.4323,0.23384 -0.6088,0.41033 -0.1677,0.16766 -0.3,0.36621 -0.3971,0.59564 -0.097,0.22943 -0.1456,0.4765 -0.1456,0.74123 0,0.26473 0.048,0.51623 0.1456,0.75448 0.097,0.22943 0.2294,0.43239 0.3971,0.60888 0.1765,0.16766 0.3794,0.30002 0.6088,0.39709 0.2295,0.0971 0.4766,0.1456 0.7413,0.1456 h 3.7988 c 0.7854,0 1.5222,0.15001 2.2105,0.45004 0.6971,0.2912 1.3016,0.69712 1.8134,1.21775 0.5207,0.51181 0.9266,1.11627 1.2178,1.81339 0.3,0.68829 0.45,1.42512 0.45,2.21048 0,0.78537 -0.15,1.5222 -0.45,2.21049 -0.2912,0.68829 -0.6971,1.29276 -1.2178,1.81339 -0.5118,0.51181 -1.1163,0.91772 -1.8134,1.21775 -0.6883,0.30003 -1.4251,0.45004 -2.2105,0.45004 h -8.4316 v -3.79886 h 8.4316 c 0.2647,0 0.5118,-0.0485 0.7413,-0.1456 0.2294,-0.0971 0.4279,-0.22943 0.5956,-0.39709 0.1765,-0.17649 0.3132,-0.37945 0.4103,-0.60888 0.097,-0.22943 0.1456,-0.47651 0.1456,-0.74124 0,-0.26473 -0.049,-0.51181 -0.1456,-0.74124 -0.097,-0.22943 -0.2338,-0.42797 -0.4103,-0.59564 -0.1677,-0.17648 -0.3662,-0.31325 -0.5956,-0.41032 -0.2295,-0.0971 -0.4766,-0.14561 -0.7413,-0.14561 h -3.7988 c -0.7854,0 -1.5222,-0.15001 -2.2105,-0.45003 -0.6883,-0.30003 -1.2927,-0.70595 -1.8134,-1.21776 -0.5118,-0.52063 -0.9177,-1.12509 -1.2177,-1.81339 -0.3001,-0.69711 -0.4501,-1.43835 -0.4501,-2.22372 z"
         id="text1404-3-4-0-8-5-5-3-4-2-4-1-7-6-5"
         style="font-size:27.1082px;line-height:1.25;font-family:Righteous;-inkscape-font-specification:'Righteous, Normal';letter-spacing:0px;word-spacing:0px;fill:#f3ede3;stroke-width:0.677701"
         aria-label="TERUS"
         sodipodi:nodetypes="cccccccccccccccccccccccccscscscscsccccscccccsccsccccccscccscccsccscscscscsccssssssccsssssccssscccscscsccsssssscssssccs" />
      <path
         d="m 1546.0871,800.36958 h -13.0114 v -18.98104 h 13.0114 v 3.79886 h -9.2126 v 3.79885 h 6.2344 v 3.79886 h -6.2344 v 3.78561 h 9.2126 z m 20.6138,-3.12038 -0.044,3.52824 -8.833,0.001 -0.4326,10e-4 h -0.3177 c -0.9001,0 -1.7693,-0.11913 -2.6076,-0.35739 -0.8295,-0.22943 -1.6104,-0.55592 -2.3428,-0.97949 -0.7236,-0.43239 -1.3854,-0.94861 -1.9855,-1.54866 -0.6001,-0.60005 -1.1163,-1.26188 -1.5486,-1.98547 -0.4236,-0.73241 -0.7545,-1.51336 -0.9928,-2.34285 -0.2294,-0.83831 -0.3441,-1.7075 -0.3441,-2.60757 0,-0.90008 0.1147,-1.76927 0.3441,-2.60758 0.2383,-0.83831 0.5692,-1.61925 0.9928,-2.34284 0.4323,-0.72359 0.9485,-1.38542 1.5486,-1.98547 0.6001,-0.60005 1.2619,-1.11186 1.9855,-1.53542 0.7324,-0.42357 1.5133,-0.75007 2.3428,-0.9795 0.8383,-0.23825 1.7075,-0.35738 2.6076,-0.35738 0.9001,0 1.7693,0.11913 2.6076,0.35738 0.8383,0.22943 1.6192,0.55593 2.3428,0.9795 0.7236,0.42356 1.3854,0.93537 1.9855,1.53542 0.6001,0.60005 1.1119,1.26188 1.5354,1.98547 0.4236,0.72359 0.7501,1.50453 0.9795,2.34284 0.2383,0.83831 0.3574,1.7075 0.3574,2.60758 0,0.93537 -0.1324,1.84427 -0.3971,2.7267 -0.2559,0.88243 -0.6221,1.7075 -1.0986,2.47521 -0.4932,0.69207 -0.2985,0.44319 -0.978,1.06089 z m -3.5918,-6.29072 c 0,-0.82949 -0.1588,-1.61044 -0.4765,-2.34285 -0.3177,-0.74124 -0.7501,-1.381 -1.2972,-1.91928 -0.5383,-0.54711 -1.178,-0.9795 -1.9192,-1.29717 -0.7325,-0.31767 -1.5134,-0.47651 -2.3429,-0.47651 -0.8383,0 -1.6237,0.15884 -2.3561,0.47651 -0.7324,0.31767 -1.3722,0.75006 -1.9193,1.29717 -0.5471,0.53828 -0.9794,1.17804 -1.2971,1.91928 -0.3177,0.73241 -0.4765,1.51336 -0.4765,2.34285 0,0.82948 0.1588,1.61043 0.4765,2.34285 0.3177,0.72359 0.75,1.35893 1.2971,1.90604 0.5471,0.54711 1.1869,0.9795 1.9193,1.29717 0.7324,0.31767 1.5178,0.47651 2.3561,0.47651 0.8295,0 1.6104,-0.15884 2.3429,-0.47651 0.7412,-0.31767 1.3809,-0.75006 1.9192,-1.29717 0.5471,-0.54711 0.9795,-1.18245 1.2972,-1.90604 0.3177,-0.73242 0.4765,-1.51337 0.4765,-2.34285 z m 21.2312,1.82663 c 0,1.05009 -0.1985,2.0384 -0.5956,2.96495 -0.3971,0.91773 -0.9398,1.72074 -1.6281,2.40903 -0.6883,0.67947 -1.4957,1.21776 -2.4222,1.61485 -0.9177,0.39709 -1.9017,0.59564 -2.9518,0.59564 -1.0501,0 -2.0384,-0.19855 -2.9649,-0.59564 -0.9177,-0.39709 -1.7207,-0.93538 -2.409,-1.61485 -0.6795,-0.68829 -1.2178,-1.4913 -1.6149,-2.40903 -0.3971,-0.92655 -0.5956,-1.91486 -0.5956,-2.96495 v -11.39657 h 3.7856 v 11.39657 c 0,0.52063 0.097,1.01037 0.2912,1.46924 0.2029,0.45886 0.4765,0.86036 0.8206,1.20451 0.3442,0.34415 0.7457,0.6177 1.2046,0.82066 0.4677,0.19413 0.9618,0.2912 1.4824,0.2912 0.5207,0 1.0104,-0.0971 1.4693,-0.2912 0.4677,-0.20296 0.8736,-0.47651 1.2177,-0.82066 0.3442,-0.34415 0.6134,-0.74565 0.8075,-1.20451 0.2029,-0.45887 0.3044,-0.94861 0.3044,-1.46924 v -11.39657 h 3.7988 z m 7.0948,7.58447 h -3.7989 v -18.98104 h 3.7989 z m 15.2477,-0.23823 -11.7268,0.23823 v -18.98104 h 3.7988 v 15.18218 h 9.4905 z"
         id="text1404-3-4-0-8-5-5-3-4-8-6-0-6"
         style="font-size:27.1082px;line-height:1.25;font-family:Righteous;-inkscape-font-specification:'Righteous, Normal';letter-spacing:0px;word-spacing:0px;fill:#f3ede3;stroke-width:0.677701"
         aria-label="EQUIL  "
         sodipodi:nodetypes="cccccccccccccccccsccsccsccsccscssscsccccscccssccscssscccsscccscccsccscscscscsccscccccccccccc" />
    </g>
    <g
       id="g32-8-8-4-1-2-1"
       transform="matrix(3.1610131,0,0,3.1610131,-2389.4696,-268.30517)">
      <path
         d="m 784.85167,91.013354 -1.80258,-3.025402 v 0 l -0.37407,-0.89118 1.00653,-0.656436 -0.63246,1.547616 v 0 l -4.60438,7.87584 4.60961,-10.984306 h 0.0875 l 2.47983,5.970989 m 0.24778,0.536723 1.86742,4.476594 -2.4993,-4.174476"
         id="text1404-3-4-0-8-1-8-1-1-9-5-1-9-6-6-0"
         style="font-size:14.5874px;line-height:1.25;font-family:'Josefin Sans';-inkscape-font-specification:'Josefin Sans, Normal';letter-spacing:0px;word-spacing:0px;fill:#f3ede3;stroke-width:0.364683"
         aria-label="A"
         sodipodi:nodetypes="cccccccccccccc" />
      <path
         style="fill:#f95142;fill-opacity:1;stroke:none;stroke-width:0.0928094;stroke-dasharray:none;stroke-opacity:1"
         d="m 787.22921,90.612812 -6.32826,1.51165 -2.24363,3.62121 c 3.50003,-2.83615 2.99793,-2.78557 8.57189,-5.13286 z"
         id="path17-13-1-6-5-2-1-1-6"
         sodipodi:nodetypes="cccc" />
    </g>
  </g>
</svg>
